<?xml version="1.0" encoding="iso-8859-1"?>
<!-- Generator: Adobe Illustrator 18.0.0, SVG Export Plug-In . SVG Version: 6.00 Build 0)  -->
<!DOCTYPE svg PUBLIC "-//W3C//DTD SVG 1.1//EN" "http://www.w3.org/Graphics/SVG/1.1/DTD/svg11.dtd">
<svg version="1.1" id="Capa_1" xmlns="http://www.w3.org/2000/svg" xmlns:xlink="http://www.w3.org/1999/xlink" x="0px" y="0px"
	 viewBox="0 0 186.178 186.178" style="enable-background:new 0 0 186.178 186.178;" xml:space="preserve">
<g>
	<path d="M178.678,0H7.5C3.358,0,0,3.358,0,7.5v171.178c0,4.143,3.358,7.5,7.5,7.5h171.178c4.143,0,7.5-3.357,7.5-7.5V7.5
		C186.178,3.358,182.82,0,178.678,0z M171.178,171.178H15V15h156.178V171.178z"/>
	<path d="M49.613,136.559c0.628,5.563,3.108,10.849,7.22,14.96c4.756,4.756,11.081,7.375,17.811,7.375c0.001,0,0.001,0,0.001,0
		c6.729,0,13.053-2.618,17.808-7.372c4.761-4.76,7.383-11.087,7.383-17.816c0.001-5.333-1.646-10.412-4.694-14.656l23.905-23.91
		c4.247,3.05,9.326,4.695,14.658,4.695c6.73,0,13.056-2.621,17.814-7.38c4.756-4.755,7.375-11.079,7.375-17.81
		c0-6.73-2.621-13.058-7.38-17.817c-4.073-4.072-9.301-6.576-14.948-7.208c-0.628-5.563-3.108-10.849-7.22-14.96
		c-4.757-4.756-11.082-7.375-17.813-7.375c-6.729,0-13.054,2.618-17.809,7.372c-4.761,4.76-7.383,11.087-7.383,17.817
		c0,5.329,1.644,10.406,4.694,14.654L67.131,91.039c-4.247-3.05-9.327-4.695-14.658-4.695c-6.729,0-13.057,2.621-17.814,7.38
		c-4.756,4.755-7.375,11.08-7.374,17.81c0,6.73,2.621,13.058,7.38,17.817C38.738,133.423,43.966,135.927,49.613,136.559z
		 M45.266,104.33c1.925-1.926,4.485-2.986,7.208-2.986c2.725,0,5.287,1.062,7.21,2.985c0.443,0.443,0.859,0.952,1.238,1.513
		c1.253,1.855,3.27,3.053,5.499,3.267c2.228,0.21,4.436-0.58,6.019-2.163l34.502-34.512c1.584-1.584,2.377-3.793,2.162-6.022
		c-0.215-2.229-1.415-4.246-3.272-5.498c-0.562-0.379-1.055-0.783-1.504-1.231c-1.926-1.926-2.986-4.486-2.986-7.208
		c0-2.723,1.062-5.282,2.988-7.209c1.923-1.922,4.481-2.98,7.204-2.98c2.724,0,5.282,1.059,7.206,2.982
		c2.687,2.687,3.647,6.62,2.509,10.267c-0.832,2.662-0.118,5.567,1.854,7.54c1.974,1.973,4.88,2.69,7.54,1.854
		c0.993-0.31,2.026-0.467,3.071-0.467c2.721,0,5.276,1.056,7.193,2.973c1.926,1.926,2.986,4.487,2.986,7.212
		c0,2.722-1.059,5.279-2.982,7.202c-1.925,1.926-4.484,2.986-7.207,2.986c-2.725,0-5.286-1.061-7.213-2.989
		c-0.441-0.44-0.857-0.949-1.236-1.509c-1.254-1.855-3.271-3.053-5.499-3.267c-2.225-0.21-4.436,0.58-6.019,2.163l-34.503,34.512
		c-1.584,1.584-2.377,3.794-2.161,6.024c0.215,2.229,1.416,4.246,3.274,5.498c0.56,0.378,1.049,0.778,1.502,1.232
		c1.925,1.925,2.986,4.484,2.986,7.205c0,2.723-1.061,5.282-2.989,7.209c-1.923,1.923-4.481,2.98-7.203,2.98h0
		c-2.724,0-5.282-1.059-7.206-2.982c-2.687-2.687-3.647-6.62-2.508-10.267c0.832-2.662,0.117-5.566-1.855-7.539
		c-1.428-1.429-3.344-2.197-5.304-2.197c-0.747,0-1.5,0.111-2.235,0.341c-0.993,0.311-2.026,0.468-3.071,0.468
		c-2.721,0-5.276-1.056-7.193-2.973c-1.926-1.926-2.986-4.487-2.986-7.212C42.285,108.81,43.343,106.252,45.266,104.33z"/>
</g>
<g>
</g>
<g>
</g>
<g>
</g>
<g>
</g>
<g>
</g>
<g>
</g>
<g>
</g>
<g>
</g>
<g>
</g>
<g>
</g>
<g>
</g>
<g>
</g>
<g>
</g>
<g>
</g>
<g>
</g>
</svg>
